# xmcd
#
# Track frame offsets:
#	150
#	16630
#	31767
#	45280
#	60781
#	78170
#	97093
#	116971
#	129941
#	146864
#	164594
#	181995
#	200042
#	215407
#	225649
#	242836
#	257849
#	275513
#	290906
#
# Disc length: 4047 seconds
#
# Revision: 1
# Processed by: cddbd v1.5.2PL0 Copyright (c) Steve Scherf et al.
# Submitted via: audiograbber 1.83.01
#
DISCID=100fcd13
DTITLE=Various Artist - Hott Country 145
DYEAR=2008
DGENRE=Country
TTITLE0=Doc Walker - Beautiful Life
TTITLE1=George Strait - I Saw God Today
TTITLE2=Emily West - Rocks In Your Shoes
TTITLE3=Keith Anderson - I Still Miss You
TTITLE4=James Otto - Just Got Started Lovin'  You
TTITLE5=Rascal Flatts - Every Day
TTITLE6=Jessie Farrell - Best Of Me
TTITLE7=Wil - Tell You Twice
TTITLE8=Higgins - Flower Child
TTITLE9=Montgomery Gentry - Back When I Knew It All
TTITLE10=Dolly Parton - Jesus and Gravity ( Radio Edit )
TTITLE11=Reba McEntire Feat Skip Ewing - Every Other Weekend
TTITLE12=Clint Black - Long Cool Woman
TTITLE13=Corb Lund - Family Reunion
TTITLE14=Jewel - Stronger Woman
TTITLE15=Joe Nichols - It Ain't No Crime
TTITLE16=Duane Steele - Two People In A Room
TTITLE17=Shane Yellowbird - Drive Me Home
TTITLE18=Chris LeDoux - Cadilliac Ranch ( 1992 
EXTD=March 2008
EXTT0=
EXTT1=
EXTT2=
EXTT3=
EXTT4=
EXTT5=
EXTT6=
EXTT7=
EXTT8=
EXTT9=
EXTT10=
EXTT11=
EXTT12=
EXTT13=
EXTT14=
EXTT15=
EXTT16=
EXTT17=
EXTT18=
PLAYORDER=
